<svg width="296" height="160" viewBox="0 0 296 160" fill="none" xmlns="http://www.w3.org/2000/svg">
<g filter="url(#filter0_d_3_25)">
<path d="M26.2386 132H23.0682C22.8807 131.088 22.5526 130.287 22.0838 129.597C21.6236 128.906 21.0611 128.327 20.3963 127.858C19.7401 127.381 19.0114 127.023 18.2102 126.784C17.4091 126.545 16.5739 126.426 15.7045 126.426C14.1193 126.426 12.6832 126.827 11.3963 127.628C10.1179 128.429 9.09943 129.609 8.34091 131.169C7.59091 132.729 7.21591 134.642 7.21591 136.909C7.21591 139.176 7.59091 141.089 8.34091 142.649C9.09943 144.209 10.1179 145.389 11.3963 146.19C12.6832 146.991 14.1193 147.392 15.7045 147.392C16.5739 147.392 17.4091 147.273 18.2102 147.034C19.0114 146.795 19.7401 146.442 20.3963 145.973C21.0611 145.496 21.6236 144.912 22.0838 144.222C22.5526 143.523 22.8807 142.722 23.0682 141.818H26.2386C26 143.156 25.5653 144.354 24.9347 145.411C24.304 146.467 23.5199 147.366 22.5824 148.108C21.6449 148.841 20.5923 149.399 19.4247 149.783C18.2656 150.166 17.0256 150.358 15.7045 150.358C13.4716 150.358 11.4858 149.812 9.74716 148.722C8.00852 147.631 6.64063 146.08 5.64347 144.068C4.64631 142.057 4.14773 139.67 4.14773 136.909C4.14773 134.148 4.64631 131.761 5.64347 129.75C6.64063 127.739 8.00852 126.188 9.74716 125.097C11.4858 124.006 13.4716 123.46 15.7045 123.46C17.0256 123.46 18.2656 123.652 19.4247 124.036C20.5923 124.419 21.6449 124.982 22.5824 125.723C23.5199 126.456 24.304 127.351 24.9347 128.408C25.5653 129.456 26 130.653 26.2386 132ZM38.93 150.409C37.1573 150.409 35.6019 149.987 34.2638 149.143C32.9343 148.3 31.8945 147.119 31.1445 145.602C30.4031 144.085 30.0323 142.312 30.0323 140.284C30.0323 138.239 30.4031 136.453 31.1445 134.928C31.8945 133.402 32.9343 132.217 34.2638 131.374C35.6019 130.53 37.1573 130.108 38.93 130.108C40.7028 130.108 42.2539 130.53 43.5835 131.374C44.9215 132.217 45.9613 133.402 46.7028 134.928C47.4528 136.453 47.8278 138.239 47.8278 140.284C47.8278 142.312 47.4528 144.085 46.7028 145.602C45.9613 147.119 44.9215 148.3 43.5835 149.143C42.2539 149.987 40.7028 150.409 38.93 150.409ZM38.93 147.699C40.2766 147.699 41.3846 147.354 42.2539 146.663C43.1232 145.973 43.7667 145.065 44.1843 143.94C44.6019 142.815 44.8107 141.597 44.8107 140.284C44.8107 138.972 44.6019 137.749 44.1843 136.615C43.7667 135.482 43.1232 134.565 42.2539 133.866C41.3846 133.168 40.2766 132.818 38.93 132.818C37.5835 132.818 36.4755 133.168 35.6062 133.866C34.7369 134.565 34.0934 135.482 33.6758 136.615C33.2582 137.749 33.0494 138.972 33.0494 140.284C33.0494 141.597 33.2582 142.815 33.6758 143.94C34.0934 145.065 34.7369 145.973 35.6062 146.663C36.4755 147.354 37.5835 147.699 38.93 147.699ZM55.4503 123.818V150H52.4332V123.818H55.4503ZM63.9933 123.818V150H60.9762V123.818H63.9933ZM77.7521 150.409C75.8601 150.409 74.228 149.991 72.8558 149.156C71.4922 148.312 70.4396 147.136 69.6982 145.628C68.9652 144.111 68.5987 142.347 68.5987 140.335C68.5987 138.324 68.9652 136.551 69.6982 135.017C70.4396 133.474 71.4709 132.273 72.7919 131.412C74.1214 130.543 75.6726 130.108 77.4453 130.108C78.468 130.108 79.478 130.278 80.4751 130.619C81.4723 130.96 82.38 131.514 83.1982 132.281C84.0163 133.04 84.6683 134.045 85.1541 135.298C85.6399 136.551 85.8828 138.094 85.8828 139.926V141.205H70.7464V138.597H82.8146C82.8146 137.489 82.593 136.5 82.1499 135.631C81.7152 134.761 81.093 134.075 80.2834 133.572C79.4822 133.07 78.5362 132.818 77.4453 132.818C76.2436 132.818 75.2038 133.116 74.326 133.713C73.4567 134.301 72.7876 135.068 72.3189 136.014C71.8501 136.96 71.6158 137.974 71.6158 139.057V140.795C71.6158 142.278 71.8714 143.536 72.3828 144.567C72.9027 145.589 73.6229 146.369 74.5433 146.906C75.4638 147.435 76.5334 147.699 77.7521 147.699C78.5447 147.699 79.2607 147.588 79.8999 147.366C80.5476 147.136 81.1058 146.795 81.5746 146.344C82.0433 145.884 82.4055 145.312 82.6612 144.631L85.576 145.449C85.2692 146.438 84.7536 147.307 84.0291 148.057C83.3047 148.798 82.4098 149.378 81.3445 149.795C80.2791 150.205 79.0817 150.409 77.7521 150.409ZM98.4496 150.409C96.6087 150.409 95.0234 149.974 93.6939 149.105C92.3643 148.236 91.3416 147.038 90.6257 145.513C89.9098 143.987 89.5518 142.244 89.5518 140.284C89.5518 138.29 89.9183 136.53 90.6513 135.004C91.3928 133.47 92.424 132.273 93.745 131.412C95.0746 130.543 96.6257 130.108 98.3984 130.108C99.7791 130.108 101.023 130.364 102.131 130.875C103.239 131.386 104.147 132.102 104.854 133.023C105.562 133.943 106.001 135.017 106.171 136.244H103.154C102.924 135.349 102.413 134.557 101.62 133.866C100.836 133.168 99.7791 132.818 98.4496 132.818C97.2734 132.818 96.2422 133.125 95.3558 133.739C94.478 134.344 93.7919 135.2 93.2976 136.308C92.8118 137.408 92.5689 138.699 92.5689 140.182C92.5689 141.699 92.8075 143.02 93.2848 144.145C93.7706 145.27 94.4524 146.143 95.3303 146.766C96.2166 147.388 97.2564 147.699 98.4496 147.699C99.2337 147.699 99.9453 147.562 100.585 147.29C101.224 147.017 101.765 146.625 102.208 146.114C102.651 145.602 102.967 144.989 103.154 144.273H106.171C106.001 145.432 105.579 146.476 104.906 147.405C104.241 148.325 103.359 149.058 102.259 149.604C101.168 150.141 99.8984 150.409 98.4496 150.409ZM119.121 130.364V132.92H108.945V130.364H119.121ZM111.911 125.659H114.928V144.375C114.928 145.227 115.052 145.866 115.299 146.293C115.555 146.71 115.879 146.991 116.271 147.136C116.671 147.273 117.093 147.341 117.536 147.341C117.869 147.341 118.141 147.324 118.354 147.29C118.567 147.247 118.738 147.213 118.866 147.188L119.479 149.898C119.275 149.974 118.989 150.051 118.623 150.128C118.256 150.213 117.792 150.256 117.229 150.256C116.377 150.256 115.542 150.072 114.724 149.706C113.914 149.339 113.241 148.781 112.704 148.031C112.175 147.281 111.911 146.335 111.911 145.193V125.659ZM123.66 150V130.364H126.677V150H123.66ZM125.194 127.091C124.606 127.091 124.099 126.891 123.673 126.49C123.255 126.089 123.046 125.608 123.046 125.045C123.046 124.483 123.255 124.001 123.673 123.601C124.099 123.2 124.606 123 125.194 123C125.782 123 126.285 123.2 126.702 123.601C127.129 124.001 127.342 124.483 127.342 125.045C127.342 125.608 127.129 126.089 126.702 126.49C126.285 126.891 125.782 127.091 125.194 127.091ZM148.26 130.364L140.998 150H137.93L130.669 130.364H133.941L139.362 146.011H139.566L144.987 130.364H148.26ZM159.772 150.409C157.88 150.409 156.248 149.991 154.875 149.156C153.512 148.312 152.459 147.136 151.718 145.628C150.985 144.111 150.618 142.347 150.618 140.335C150.618 138.324 150.985 136.551 151.718 135.017C152.459 133.474 153.49 132.273 154.811 131.412C156.141 130.543 157.692 130.108 159.465 130.108C160.488 130.108 161.498 130.278 162.495 130.619C163.492 130.96 164.4 131.514 165.218 132.281C166.036 133.04 166.688 134.045 167.174 135.298C167.659 136.551 167.902 138.094 167.902 139.926V141.205H152.766V138.597H164.834C164.834 137.489 164.613 136.5 164.169 135.631C163.735 134.761 163.113 134.075 162.303 133.572C161.502 133.07 160.556 132.818 159.465 132.818C158.263 132.818 157.223 133.116 156.346 133.713C155.476 134.301 154.807 135.068 154.338 136.014C153.87 136.96 153.635 137.974 153.635 139.057V140.795C153.635 142.278 153.891 143.536 154.402 144.567C154.922 145.589 155.642 146.369 156.563 146.906C157.483 147.435 158.553 147.699 159.772 147.699C160.564 147.699 161.28 147.588 161.919 147.366C162.567 147.136 163.125 146.795 163.594 146.344C164.063 145.884 164.425 145.312 164.681 144.631L167.596 145.449C167.289 146.438 166.773 147.307 166.049 148.057C165.324 148.798 164.429 149.378 163.364 149.795C162.299 150.205 161.101 150.409 159.772 150.409ZM184.1 150H180.776L190.39 123.818H193.662L203.276 150H199.952L192.128 127.96H191.924L184.1 150ZM185.327 139.773H198.725V142.585H185.327V139.773ZM214.922 150.409C213.081 150.409 211.496 149.974 210.167 149.105C208.837 148.236 207.814 147.038 207.098 145.513C206.382 143.987 206.025 142.244 206.025 140.284C206.025 138.29 206.391 136.53 207.124 135.004C207.865 133.47 208.897 132.273 210.218 131.412C211.547 130.543 213.098 130.108 214.871 130.108C216.252 130.108 217.496 130.364 218.604 130.875C219.712 131.386 220.62 132.102 221.327 133.023C222.034 133.943 222.473 135.017 222.644 136.244H219.627C219.397 135.349 218.885 134.557 218.093 133.866C217.309 133.168 216.252 132.818 214.922 132.818C213.746 132.818 212.715 133.125 211.828 133.739C210.951 134.344 210.265 135.2 209.77 136.308C209.284 137.408 209.042 138.699 209.042 140.182C209.042 141.699 209.28 143.02 209.757 144.145C210.243 145.27 210.925 146.143 211.803 146.766C212.689 147.388 213.729 147.699 214.922 147.699C215.706 147.699 216.418 147.562 217.057 147.29C217.696 147.017 218.238 146.625 218.681 146.114C219.124 145.602 219.439 144.989 219.627 144.273H222.644C222.473 145.432 222.051 146.476 221.378 147.405C220.713 148.325 219.831 149.058 218.732 149.604C217.641 150.141 216.371 150.409 214.922 150.409ZM235.594 130.364V132.92H225.418V130.364H235.594ZM228.384 125.659H231.401V144.375C231.401 145.227 231.525 145.866 231.772 146.293C232.027 146.71 232.351 146.991 232.743 147.136C233.144 147.273 233.566 147.341 234.009 147.341C234.341 147.341 234.614 147.324 234.827 147.29C235.04 147.247 235.211 147.213 235.338 147.188L235.952 149.898C235.748 149.974 235.462 150.051 235.096 150.128C234.729 150.213 234.265 150.256 233.702 150.256C232.85 150.256 232.015 150.072 231.196 149.706C230.387 149.339 229.713 148.781 229.176 148.031C228.648 147.281 228.384 146.335 228.384 145.193V125.659ZM240.132 150V130.364H243.15V150H240.132ZM241.667 127.091C241.078 127.091 240.571 126.891 240.145 126.49C239.728 126.089 239.519 125.608 239.519 125.045C239.519 124.483 239.728 124.001 240.145 123.601C240.571 123.2 241.078 123 241.667 123C242.255 123 242.757 123.2 243.175 123.601C243.601 124.001 243.814 124.483 243.814 125.045C243.814 125.608 243.601 126.089 243.175 126.49C242.757 126.891 242.255 127.091 241.667 127.091ZM256.653 150.409C254.88 150.409 253.325 149.987 251.987 149.143C250.657 148.3 249.617 147.119 248.867 145.602C248.126 144.085 247.755 142.312 247.755 140.284C247.755 138.239 248.126 136.453 248.867 134.928C249.617 133.402 250.657 132.217 251.987 131.374C253.325 130.53 254.88 130.108 256.653 130.108C258.425 130.108 259.977 130.53 261.306 131.374C262.644 132.217 263.684 133.402 264.425 134.928C265.175 136.453 265.55 138.239 265.55 140.284C265.55 142.312 265.175 144.085 264.425 145.602C263.684 147.119 262.644 148.3 261.306 149.143C259.977 149.987 258.425 150.409 256.653 150.409ZM256.653 147.699C257.999 147.699 259.107 147.354 259.977 146.663C260.846 145.973 261.489 145.065 261.907 143.94C262.325 142.815 262.533 141.597 262.533 140.284C262.533 138.972 262.325 137.749 261.907 136.615C261.489 135.482 260.846 134.565 259.977 133.866C259.107 133.168 257.999 132.818 256.653 132.818C255.306 132.818 254.198 133.168 253.329 133.866C252.46 134.565 251.816 135.482 251.398 136.615C250.981 137.749 250.772 138.972 250.772 140.284C250.772 141.597 250.981 142.815 251.398 143.94C251.816 145.065 252.46 145.973 253.329 146.663C254.198 147.354 255.306 147.699 256.653 147.699ZM273.173 138.188V150H270.156V130.364H273.071V133.432H273.326C273.787 132.435 274.485 131.634 275.423 131.028C276.36 130.415 277.571 130.108 279.054 130.108C280.383 130.108 281.547 130.381 282.544 130.926C283.541 131.463 284.316 132.281 284.87 133.381C285.424 134.472 285.701 135.852 285.701 137.523V150H282.684V137.727C282.684 136.185 282.284 134.983 281.483 134.122C280.681 133.253 279.582 132.818 278.184 132.818C277.221 132.818 276.36 133.027 275.602 133.445C274.852 133.862 274.26 134.472 273.825 135.273C273.39 136.074 273.173 137.045 273.173 138.188Z" fill="black"/>
</g>
<g filter="url(#filter1_i_3_25)">
<circle cx="148" cy="37" r="37" fill="#DA6D6D"/>
</g>
<g filter="url(#filter2_i_3_25)">
<circle cx="116" cy="83" r="37" fill="#DA6D6D"/>
</g>
<g filter="url(#filter3_i_3_25)">
<circle cx="182" cy="83" r="37" fill="#DA6D6D"/>
</g>
<defs>
<filter id="filter0_d_3_25" x="0.147736" y="123" width="289.554" height="35.4091" filterUnits="userSpaceOnUse" color-interpolation-filters="sRGB">
<feFlood flood-opacity="0" result="BackgroundImageFix"/>
<feColorMatrix in="SourceAlpha" type="matrix" values="0 0 0 0 0 0 0 0 0 0 0 0 0 0 0 0 0 0 127 0" result="hardAlpha"/>
<feOffset dy="4"/>
<feGaussianBlur stdDeviation="2"/>
<feComposite in2="hardAlpha" operator="out"/>
<feColorMatrix type="matrix" values="0 0 0 0 0 0 0 0 0 0 0 0 0 0 0 0 0 0 0.25 0"/>
<feBlend mode="normal" in2="BackgroundImageFix" result="effect1_dropShadow_3_25"/>
<feBlend mode="normal" in="SourceGraphic" in2="effect1_dropShadow_3_25" result="shape"/>
</filter>
<filter id="filter1_i_3_25" x="111" y="0" width="74" height="78" filterUnits="userSpaceOnUse" color-interpolation-filters="sRGB">
<feFlood flood-opacity="0" result="BackgroundImageFix"/>
<feBlend mode="normal" in="SourceGraphic" in2="BackgroundImageFix" result="shape"/>
<feColorMatrix in="SourceAlpha" type="matrix" values="0 0 0 0 0 0 0 0 0 0 0 0 0 0 0 0 0 0 127 0" result="hardAlpha"/>
<feOffset dy="4"/>
<feGaussianBlur stdDeviation="2"/>
<feComposite in2="hardAlpha" operator="arithmetic" k2="-1" k3="1"/>
<feColorMatrix type="matrix" values="0 0 0 0 0 0 0 0 0 0 0 0 0 0 0 0 0 0 0.25 0"/>
<feBlend mode="normal" in2="shape" result="effect1_innerShadow_3_25"/>
</filter>
<filter id="filter2_i_3_25" x="79" y="46" width="74" height="78" filterUnits="userSpaceOnUse" color-interpolation-filters="sRGB">
<feFlood flood-opacity="0" result="BackgroundImageFix"/>
<feBlend mode="normal" in="SourceGraphic" in2="BackgroundImageFix" result="shape"/>
<feColorMatrix in="SourceAlpha" type="matrix" values="0 0 0 0 0 0 0 0 0 0 0 0 0 0 0 0 0 0 127 0" result="hardAlpha"/>
<feOffset dy="4"/>
<feGaussianBlur stdDeviation="2"/>
<feComposite in2="hardAlpha" operator="arithmetic" k2="-1" k3="1"/>
<feColorMatrix type="matrix" values="0 0 0 0 0 0 0 0 0 0 0 0 0 0 0 0 0 0 0.25 0"/>
<feBlend mode="normal" in2="shape" result="effect1_innerShadow_3_25"/>
</filter>
<filter id="filter3_i_3_25" x="145" y="46" width="74" height="78" filterUnits="userSpaceOnUse" color-interpolation-filters="sRGB">
<feFlood flood-opacity="0" result="BackgroundImageFix"/>
<feBlend mode="normal" in="SourceGraphic" in2="BackgroundImageFix" result="shape"/>
<feColorMatrix in="SourceAlpha" type="matrix" values="0 0 0 0 0 0 0 0 0 0 0 0 0 0 0 0 0 0 127 0" result="hardAlpha"/>
<feOffset dy="4"/>
<feGaussianBlur stdDeviation="2"/>
<feComposite in2="hardAlpha" operator="arithmetic" k2="-1" k3="1"/>
<feColorMatrix type="matrix" values="0 0 0 0 0 0 0 0 0 0 0 0 0 0 0 0 0 0 0.25 0"/>
<feBlend mode="normal" in2="shape" result="effect1_innerShadow_3_25"/>
</filter>
</defs>
</svg>
